<svg xmlns="http://www.w3.org/2000/svg" width="25" height="25" fill="none"><path fill="#fff" d="M12.68.827c3.201 0 3.6.012 4.856.07 1.255.06 2.109.256 2.86.549.778.299 1.433.704 2.088 1.358a5.8 5.8 0 0 1 1.358 2.087c.291.75.489 1.606.548 2.86.055 1.256.07 1.656.07 4.856s-.011 3.6-.07 4.856-.257 2.109-.548 2.86a5.75 5.75 0 0 1-1.358 2.088 5.8 5.8 0 0 1-2.088 1.358c-.75.29-1.605.489-2.86.548-1.256.055-1.655.07-4.856.07s-3.6-.011-4.855-.07-2.109-.257-2.86-.548a5.8 5.8 0 0 1-2.088-1.358 5.8 5.8 0 0 1-1.358-2.088c-.292-.75-.489-1.605-.548-2.86-.055-1.256-.07-1.655-.07-4.856s.011-3.6.07-4.856.256-2.108.548-2.86c.295-.786.758-1.499 1.358-2.087a5.8 5.8 0 0 1 2.088-1.358c.751-.293 1.604-.49 2.86-.548C9.08.842 9.48.828 12.68.828m0 5.89a5.89 5.89 0 1 0 0 11.78 5.89 5.89 0 0 0 0-11.78m7.658-.294a1.473 1.473 0 1 0-2.946 0 1.473 1.473 0 0 0 2.946 0m-7.658 2.65a3.534 3.534 0 1 1 0 7.068 3.534 3.534 0 0 1 0-7.068"/></svg>