<svg xmlns="http://www.w3.org/2000/svg" width="100" height="46" fill="none"><path fill="#fff" d="M17.347 46q-2.205 0-3.469-.867-1.239-.868-1.734-2.354-.495-1.512-.496-3.47v-7.161q0-2.056.496-3.569.495-1.511 1.734-2.329 1.265-.818 3.47-.818 2.081 0 3.246.719a3.8 3.8 0 0 1 1.685 2.007q.495 1.314.495 3.048v1.685h-3.518v-1.734q0-.843-.1-1.537-.075-.693-.47-1.09-.372-.42-1.314-.421-.942 0-1.387.446-.421.42-.546 1.164a9.7 9.7 0 0 0-.124 1.636v8.723q0 1.09.174 1.808.173.694.62 1.066.47.347 1.263.347.917 0 1.289-.421.397-.447.495-1.165.1-.72.1-1.61v-1.81h3.518v1.611q0 1.785-.47 3.172a4.15 4.15 0 0 1-1.66 2.156Q19.477 46 17.346 46M24.584 45.727V25.655h3.668V43.2h4.857v2.527zM34.37 45.727V25.655h3.618v20.072zM40.302 45.727l.347-20.072h3.791l2.85 13.902 2.974-13.902h3.667l.372 20.072h-2.726l-.297-13.95-2.85 13.95h-2.205l-2.9-14-.272 14zM56.524 45.727V25.655h4.931q1.338 0 2.404.248 1.09.248 1.858.843.794.57 1.214 1.56.422.992.422 2.504 0 1.214-.347 2.081-.322.867-.967 1.388-.645.495-1.61.669 1.19.198 1.957.843.793.62 1.165 1.635.396 1.016.396 2.453 0 1.438-.371 2.553-.348 1.09-1.066 1.833-.693.72-1.76 1.09-1.039.372-2.453.372zm3.667-2.577h1.388q1.66 0 2.255-.793.595-.818.595-2.502 0-1.215-.298-1.958-.272-.768-.941-1.14-.645-.372-1.735-.372h-1.264zm0-9.292h1.24q1.09 0 1.684-.322a1.7 1.7 0 0 0 .818-.992q.248-.669.248-1.685 0-1.065-.372-1.635-.346-.595-1.065-.793-.719-.223-1.834-.223h-.719zM69.673 45.727V25.655h3.618v20.072zM75.655 45.727V25.655h2.552l4.882 11.449V25.655h3.023v20.072h-2.428l-4.907-11.993v11.993zM93.445 46q-1.982 0-3.147-.843-1.164-.842-1.685-2.378-.496-1.562-.496-3.668v-6.74q0-2.155.496-3.717.496-1.561 1.735-2.38 1.264-.841 3.469-.842 2.057 0 3.27.694a3.9 3.9 0 0 1 1.736 2.007q.545 1.29.545 3.148v1.04h-3.494v-1.14q0-.966-.15-1.66-.123-.694-.544-1.04-.397-.372-1.314-.372-.966 0-1.412.47-.421.47-.545 1.24-.1.767-.1 1.685v8.4q0 1.041.174 1.809t.644 1.19q.47.396 1.339.396.892 0 1.362-.446.472-.445.645-1.24.198-.792.198-1.882v-1.884h-2.156v-2.304h5.452v10.184h-2.354l-.273-1.982a3.9 3.9 0 0 1-1.214 1.636q-.794.62-2.18.619M11.945 20.295V.223h8.426V2.8h-4.758v5.774h3.742v2.552h-3.742v6.641h4.807v2.528zM21.801 20.295V.223h3.668v17.545h4.857v2.527zM31.488 20.295V.223h4.931q1.339 0 2.404.248 1.09.248 1.858.842.794.57 1.215 1.562.42.99.42 2.502 0 1.215-.346 2.082-.322.866-.966 1.388-.645.495-1.611.669 1.19.198 1.957.842.794.62 1.165 1.636.396 1.016.397 2.453 0 1.437-.372 2.552-.347 1.09-1.066 1.834-.693.72-1.76 1.09-1.04.372-2.452.372zm3.667-2.577h1.388q1.66 0 2.255-.793.594-.818.595-2.503 0-1.214-.298-1.958-.272-.768-.941-1.14-.645-.37-1.735-.371h-1.264zm0-9.293h1.24q1.09 0 1.684-.322a1.7 1.7 0 0 0 .818-.991q.248-.67.248-1.685 0-1.066-.372-1.636-.346-.594-1.065-.793-.719-.223-1.834-.223h-.719zM44.538 20.295V.223h4.808q2.031 0 3.42.496 1.41.471 2.13 1.635.744 1.165.744 3.172 0 1.215-.223 2.18-.223.967-.769 1.66-.52.67-1.462 1.042l2.8 9.887H52.32l-2.428-9.193h-1.685v9.193zm3.668-11.498h1.14q1.065 0 1.685-.297.645-.323.916-.992.273-.694.273-1.759 0-1.512-.57-2.255-.545-.768-2.106-.768h-1.338zM63.114 20.568q-2.23 0-3.47-.818-1.238-.818-1.71-2.33-.47-1.51-.47-3.617V.223h3.568v14q0 .943.124 1.785.124.818.57 1.338.471.495 1.388.496.966 0 1.388-.496.445-.52.57-1.338.148-.843.148-1.784V.223h3.544v13.58q0 2.106-.471 3.617t-1.71 2.33q-1.214.818-3.47.818M75.96 20.568q-1.81 0-3.023-.694-1.214-.72-1.834-2.082-.62-1.363-.694-3.345l3.147-.62q.05 1.165.273 2.057.248.893.719 1.388.496.47 1.288.47.892 0 1.264-.52.372-.545.372-1.363 0-1.313-.595-2.155-.594-.843-1.586-1.686l-2.528-2.23a7.9 7.9 0 0 1-1.71-2.032q-.619-1.14-.619-2.8 0-2.379 1.388-3.667Q73.21-.001 75.613 0q1.413 0 2.354.446.942.42 1.487 1.19.57.768.843 1.759.272.966.347 2.057l-3.123.545a9.7 9.7 0 0 0-.223-1.685q-.148-.744-.57-1.165-.395-.42-1.19-.421-.816 0-1.263.545-.42.52-.421 1.313 0 1.017.421 1.685.421.645 1.214 1.339l2.503 2.205a10 10 0 0 1 2.106 2.453q.893 1.388.893 3.37 0 1.439-.645 2.553-.62 1.115-1.76 1.76-1.114.619-2.626.619"/><path fill="#FF0002" d="M0 .08h3.913v45.648H0z"/></svg>