<svg xmlns="http://www.w3.org/2000/svg" width="38" height="22" fill="none"><path fill="#fff" d="M37.639 1.642q.444 1.237-2.897 5.68-.463.619-1.255 1.643-.773.985-1.062 1.39-.29.406-.59.957-.298.55-.231.812.068.26.251.666t.628.83q.444.426 1.1 1.025.078.038.097.077 2.723 2.53 3.688 4.27.06.096.126.241.068.146.135.512.068.367-.01.657-.076.29-.482.532-.405.24-1.14.241l-4.943.077q-.465.098-1.082-.096a4.7 4.7 0 0 1-1.004-.425l-.386-.232q-.58-.405-1.352-1.237a35 35 0 0 1-1.323-1.497 6.4 6.4 0 0 0-1.178-1.12q-.627-.454-1.091-.3-.058.019-.155.068-.096.048-.328.28a2.5 2.5 0 0 0-.415.57q-.184.338-.328 1.004a6.4 6.4 0 0 0-.126 1.498q0 .29-.068.531t-.144.357l-.078.097q-.346.367-1.023.425h-2.22a8.8 8.8 0 0 1-2.82-.319q-1.448-.396-2.54-1.024a23 23 0 0 1-1.989-1.275q-.899-.647-1.361-1.11l-.483-.464a13 13 0 0 1-.531-.58q-.339-.387-1.381-1.758A48 48 0 0 1 5.6 11.727q-1.005-1.545-2.366-4.076a64 64 0 0 1-2.52-5.255 1.5 1.5 0 0 1-.116-.522q0-.213.058-.309l.077-.116q.29-.367 1.101-.367l5.291-.039q.232.039.445.126.212.087.309.164l.096.058q.308.213.464.618.386.966.888 2 .503 1.034.792 1.575l.309.56q.56 1.16 1.081 2.01.522.849.937 1.323.416.473.801.743.387.27.657.271.27 0 .521-.097a.3.3 0 0 0 .097-.096q.057-.078.232-.425.173-.348.26-.908T15.2 7.4t0-2.415a9 9 0 0 0-.174-1.41q-.135-.639-.27-.89l-.116-.231q-.483-.657-1.642-.831-.25-.038.097-.464.309-.367.734-.58Q14.85.079 18.443.117q1.584.02 2.607.251.386.098.647.261.261.164.396.464t.203.618.067.879-.019 1.063q-.02.502-.048 1.362-.03.86-.03 1.594 0 .212-.018.811-.02.6-.01.927.01.33.067.783.058.454.223.753.164.3.434.474.154.039.328.077.174.039.502-.213.33-.251.734-.666.405-.415 1.005-1.294.598-.88 1.313-2.077a31.5 31.5 0 0 0 2.066-4.347q.078-.194.193-.339a.9.9 0 0 1 .212-.202l.078-.058.096-.049.251-.058.387-.01 5.561-.038q.753-.096 1.236.048t.599.32z"/></svg>